<svg viewBox="0 0 24 20.49" fill="none" xmlns="http://www.w3.org/2000/svg"><path d="M14.881 6.42099C14.1615 6.42099 13.4115 6.57099 12.7212 6.84052C12.2407 7.0503 11.7907 7.32102 11.3712 7.62103V6.75148C11.3712 6.57101 11.2211 6.42099 11.0407 6.42099C10.8602 6.42099 10.7102 6.57099 10.7102 6.75148V8.34177C10.7102 8.52225 10.8602 8.67226 11.0407 8.67226H12.631C12.8114 8.67226 12.9614 8.52226 12.9614 8.34177C12.9614 8.1613 12.8114 8.01128 12.631 8.01128H11.9712C12.3017 7.80151 12.631 7.59175 12.9907 7.44174C13.6212 7.2015 14.2505 7.08197 14.9103 7.08197C17.7299 7.08197 20.0105 9.36253 20.0105 12.1821C20.0105 15.0017 17.7299 17.2823 14.9103 17.2823C12.0907 17.2823 9.81014 15.0017 9.81014 12.1821C9.81014 11.4919 9.96014 10.8016 10.2297 10.1723C10.2894 9.99184 10.2297 9.81254 10.0492 9.7223C9.86873 9.66253 9.68943 9.7223 9.59918 9.90277C9.29917 10.6223 9.14917 11.4028 9.14917 12.1833C9.14917 15.364 11.7297 17.9432 14.9091 17.9432C18.0898 17.9432 20.6689 15.3626 20.6689 12.1833C20.6701 9.00172 18.0604 6.42099 14.881 6.42099Z" fill="#4AE52E"></path><path d="M21.9311 3.18058C21.8116 3.06105 21.5713 3.06105 21.4506 3.18058L20.5506 4.08061C20.431 4.20015 20.431 4.4111 20.5506 4.56111L20.9408 4.95136L20.131 5.76115C18.9615 4.80136 17.5212 4.17086 15.9615 3.96109V2.79153H16.892C17.0725 2.79153 17.2225 2.64153 17.2225 2.46104V0.330491C17.2225 0.150017 17.0725 0 16.892 0L12.9004 0.00117191C12.7199 0.00117191 12.5699 0.151176 12.5699 0.331662V2.46104C12.5699 2.64152 12.7199 2.79153 12.9004 2.79153H13.8004V3.96109C9.71968 4.50135 6.56958 7.98062 6.56958 12.1808C6.56958 16.7712 10.2891 20.4907 14.8796 20.4907C19.47 20.4907 23.1895 16.7712 23.1895 12.1808C23.1895 10.2002 22.4993 8.37094 21.3297 6.93059L22.1395 6.1208L22.5297 6.51105C22.5895 6.57082 22.6797 6.60129 22.77 6.60129C22.8602 6.60129 22.9505 6.57082 23.0102 6.51105L23.9103 5.61103C24.0298 5.49149 24.0298 5.28053 23.9103 5.13053L21.9311 3.18058ZM13.2308 2.13055V0.660981H16.5615V2.13055H13.2308ZM15.3004 2.7915V3.9013C15.1504 3.9013 15.0309 3.87083 14.8809 3.87083C14.7309 3.87083 14.6113 3.87083 14.4613 3.9013V2.7915H15.3004ZM22.5312 12.2112C22.5312 16.4113 19.1105 19.8615 14.881 19.8615C10.6503 19.8615 7.23074 16.4419 7.23074 12.2112C7.23074 8.25138 10.2614 4.98037 14.131 4.59156C14.4005 4.56109 14.6407 4.56109 14.881 4.56109C15.1212 4.56109 15.3615 4.56109 15.631 4.59156C19.5005 4.98064 22.5312 8.25138 22.5312 12.2112ZM20.8812 6.48042C20.791 6.39018 20.7007 6.29995 20.6116 6.21088L21.3922 5.43038L21.6617 5.69992L20.8812 6.48042ZM22.7703 5.82064L22.3812 5.46087L21.2714 4.35107L21.691 3.93154L23.191 5.43159L22.7703 5.82064Z" fill="#4AE52E"></path><path d="M6.71956 7.56133C6.71956 7.38085 6.56955 7.23083 6.38907 7.23083H2.60954C2.42907 7.23083 2.27905 7.38084 2.27905 7.56133C2.27905 7.74181 2.42906 7.89182 2.60954 7.89182H6.39027C6.56957 7.89182 6.71956 7.74181 6.71956 7.56133Z" fill="#4AE52E"></path><path d="M0.330491 12.5421H4.11121C4.29169 12.5421 4.44171 12.3921 4.44171 12.2116C4.44171 12.0311 4.2917 11.8811 4.11121 11.8811H0.330491C0.150017 11.8811 0 12.0311 0 12.2116C0 12.3921 0.150005 12.5421 0.330491 12.5421Z" fill="#4AE52E"></path><path d="M2.60954 17.1922H6.39027C6.57074 17.1922 6.72076 17.0422 6.72076 16.8618C6.72076 16.6813 6.57075 16.5313 6.39027 16.5313H2.60954C2.42907 16.5313 2.27905 16.6813 2.27905 16.8618C2.28022 17.0422 2.43023 17.1922 2.60954 17.1922Z" fill="#4AE52E"></path><path d="M1.14014 14.5213C1.14014 14.7017 1.29014 14.8517 1.47063 14.8517H5.25135C5.43183 14.8517 5.58184 14.7017 5.58184 14.5213C5.58184 14.3408 5.43184 14.1908 5.25135 14.1908L1.46973 14.1919C1.29042 14.1919 1.14014 14.3419 1.14014 14.5213Z" fill="#4AE52E"></path><path d="M1.14014 9.87109C1.14014 10.0516 1.29014 10.2016 1.47063 10.2016H5.25135C5.43183 10.2016 5.58184 10.0516 5.58184 9.87109C5.58184 9.69062 5.43184 9.5406 5.25135 9.5406L1.46973 9.54178C1.29042 9.54178 1.14014 9.69178 1.14014 9.87109Z" fill="#4AE52E"></path></svg>