<svg viewBox="0 0 49 32.73" fill="none" xmlns="http://www.w3.org/2000/svg"><path d="M5.72874 15.1H10.5201C10.9615 15.1 11.3187 14.7418 11.3187 14.3V11.1C11.3187 10.6582 10.9615 10.3 10.5201 10.3H5.72874C5.28734 10.3 4.93018 10.6582 4.93018 11.1V14.3C4.93018 14.7418 5.28734 15.1 5.72874 15.1ZM6.5273 11.9H9.72154V13.5H6.5273V11.9Z" fill="#4AE52E"></path><path d="M5.72874 25.5H10.5201C10.9615 25.5 11.3187 25.1418 11.3187 24.7C11.3187 24.2582 10.9615 23.9 10.5201 23.9H5.72874C5.28734 23.9 4.93018 24.2582 4.93018 24.7C4.93018 25.1418 5.28734 25.5 5.72874 25.5Z" fill="#4AE52E"></path><path d="M13.7143 27.1H5.72874C5.28734 27.1 4.93018 27.4582 4.93018 27.9C4.93018 28.3418 5.28734 28.7 5.72874 28.7H13.7143C14.1557 28.7 14.5129 28.3418 14.5129 27.9C14.5129 27.4582 14.1557 27.1 13.7143 27.1Z" fill="#4AE52E"></path><path d="M48.0525 0.700012H14.5129C14.0715 0.700012 13.7144 1.05822 13.7144 1.50001V4.80392C13.7144 5.24572 14.0715 5.60392 14.5129 5.60392C14.9543 5.60392 15.3115 5.24572 15.3115 4.80392V2.30001H47.2539V7.10001H18.2343C17.7929 7.10001 17.4358 7.45821 17.4358 7.90001C17.4358 8.34181 17.7929 8.70001 18.2343 8.70001H37.6712V24.7H24.0956C23.6543 24.7 23.2971 25.0582 23.2971 25.5C23.2971 25.9418 23.6543 26.3 24.0956 26.3H48.0525C48.4939 26.3 48.851 25.9418 48.851 25.5V1.50001C48.851 1.05822 48.4939 0.700012 48.0525 0.700012ZM39.2683 24.7V8.70001H47.2539V24.7H39.2683Z" fill="#4AE52E"></path><path d="M28.0881 5.49999C28.5291 5.49999 28.8867 5.14182 28.8867 4.69999C28.8867 4.25817 28.5291 3.89999 28.0881 3.89999C27.6471 3.89999 27.2896 4.25817 27.2896 4.69999C27.2896 5.14182 27.6471 5.49999 28.0881 5.49999Z" fill="#4AE52E"></path><path d="M23.2971 5.49999C23.7381 5.49999 24.0957 5.14182 24.0957 4.69999C24.0957 4.25817 23.7381 3.89999 23.2971 3.89999C22.8561 3.89999 22.4985 4.25817 22.4985 4.69999C22.4985 5.14182 22.8561 5.49999 23.2971 5.49999Z" fill="#4AE52E"></path><path d="M18.5056 5.49999C18.9466 5.49999 19.3042 5.14182 19.3042 4.69999C19.3042 4.25817 18.9466 3.89999 18.5056 3.89999C18.0646 3.89999 17.707 4.25817 17.707 4.69999C17.707 5.14182 18.0646 5.49999 18.5056 5.49999Z" fill="#4AE52E"></path><path d="M44.8585 11.9H41.6643C41.2229 11.9 40.8657 12.2582 40.8657 12.7C40.8657 13.1418 41.2229 13.5 41.6643 13.5H44.8585C45.2999 13.5 45.6571 13.1418 45.6571 12.7C45.6571 12.2582 45.2999 11.9 44.8585 11.9Z" fill="#4AE52E"></path><path d="M44.8585 15.1H41.6643C41.2229 15.1 40.8657 15.4582 40.8657 15.9C40.8657 16.3418 41.2229 16.7 41.6643 16.7H44.8585C45.2999 16.7 45.6571 16.3418 45.6571 15.9C45.6571 15.4582 45.2999 15.1 44.8585 15.1Z" fill="#4AE52E"></path><path d="M44.8585 18.3H41.6643C41.2229 18.3 40.8657 18.6582 40.8657 19.1C40.8657 19.5418 41.2229 19.9 41.6643 19.9H44.8585C45.2999 19.9 45.6571 19.5418 45.6571 19.1C45.6571 18.6582 45.2999 18.3 44.8585 18.3Z" fill="#4AE52E"></path><path d="M33.4127 17.6602V19.6953C33.4127 19.8992 33.2763 20.0817 33.04 20.186L31.7517 20.7715C31.3501 20.9539 31.1723 21.4281 31.354 21.8305C31.4881 22.1258 31.7782 22.3004 32.0823 22.3004C32.1923 22.3004 32.3046 22.2774 32.4114 22.2285L33.6919 21.6465C34.5045 21.2875 35.0099 20.5399 35.0099 19.6953V18.0164L35.81 17.2946C35.9784 17.143 36.0744 16.9266 36.0744 16.7C36.0744 16.4735 35.9784 16.2571 35.81 16.1055L35.0099 15.3836V13.7047C35.0099 12.8602 34.5045 12.1125 33.6997 11.7571L32.4114 11.1715C32.009 10.9871 31.5364 11.1672 31.354 11.5696C31.1723 11.9719 31.3501 12.4461 31.7517 12.6285L33.0478 13.2176C33.2763 13.3184 33.4127 13.5008 33.4127 13.7047V15.7399C33.4127 15.9664 33.5087 16.1828 33.6771 16.3344L34.0826 16.7L33.6771 17.0656C33.5087 17.2172 33.4127 17.4336 33.4127 17.6602Z" fill="#4AE52E"></path><path d="M26.7573 15.7399V13.7047C26.7573 13.5008 26.8938 13.3184 27.1301 13.2141L28.4184 12.6285C28.82 12.4461 28.9978 11.9719 28.8161 11.5696C28.6336 11.1672 28.1618 10.9871 27.7586 11.1715L26.4781 11.7535C25.6655 12.1125 25.1602 12.8602 25.1602 13.7047V15.3836L24.3601 16.1055C24.1916 16.2571 24.0957 16.4735 24.0957 16.7C24.0957 16.9266 24.1916 17.143 24.3601 17.2946L25.1602 18.0164V19.6953C25.1602 20.5399 25.6655 21.2875 26.4703 21.643L27.7586 22.2285C27.8655 22.2774 27.9778 22.3004 28.0877 22.3004C28.3919 22.3004 28.682 22.1258 28.8161 21.8305C28.9978 21.4281 28.82 20.9539 28.4184 20.7715L27.1223 20.1824C26.8938 20.0817 26.7573 19.8992 26.7573 19.6953V17.6602C26.7573 17.4336 26.6614 17.2172 26.4929 17.0656L26.0874 16.7L26.4929 16.3344C26.6614 16.1828 26.7573 15.9664 26.7573 15.7399Z" fill="#4AE52E"></path><path d="M21.6491 14.8433C21.6404 14.818 21.6338 14.7934 21.6227 14.769C21.5838 14.6839 21.5347 14.6031 21.4661 14.5344L14.2791 7.33438C14.2107 7.26583 14.1302 7.2168 14.0456 7.17794C14.0207 7.16651 13.9956 7.15972 13.9696 7.15089C13.9032 7.12823 13.8357 7.11475 13.7656 7.11021C13.748 7.10904 13.7322 7.10001 13.7145 7.10001H1.73606C1.29467 7.10001 0.9375 7.45821 0.9375 7.90001V31.9C0.9375 32.3418 1.29467 32.7 1.73606 32.7H20.9015C21.3429 32.7 21.7001 32.3418 21.7001 31.9V15.1C21.7001 15.083 21.6914 15.0677 21.6903 15.0508C21.6859 14.9795 21.6722 14.9108 21.6491 14.8433ZM18.9738 14.3H14.513V9.83126L18.9738 14.3ZM2.53462 31.1V8.70001H12.9159V15.1C12.9159 15.5418 13.2731 15.9 13.7145 15.9H20.103V31.1H2.53462Z" fill="#4AE52E"></path></svg>