<svg viewBox="0 0 24 24" fill="none" xmlns="http://www.w3.org/2000/svg"><path fill-rule="evenodd" clip-rule="evenodd" d="M14.0911 1.86387C14.2268 1.99309 14.2321 2.20784 14.1029 2.34354C13.9737 2.47923 13.759 2.48463 13.6233 2.35541L12.3399 1.13196V7.19578H11.6598V1.13196L10.3765 2.35541C10.2408 2.48463 10.026 2.47923 9.8968 2.34354C9.76758 2.20784 9.77297 1.99309 9.90867 1.86387L11.7658 0.0935802C11.8959 -0.030518 12.102 -0.0318669 12.2336 0.0935802L14.0911 1.86387ZM12.8201 11.1799H9.23638V14.7633H12.8201V11.1799ZM8.89646 10.4998H13.16C13.3478 10.4998 13.5002 10.6519 13.5002 10.8399V15.1038C13.5002 15.2916 13.3481 15.444 13.16 15.444H8.89646C8.7087 15.444 8.55627 15.2918 8.55627 15.1038V10.8399C8.55627 10.6522 8.70843 10.4998 8.89646 10.4998ZM15.6431 7.87616H9.62028L8.3569 9.13953H14.3797L15.6431 7.87616ZM16.1241 14.3797L14.8607 15.6431V9.62028L16.1241 8.3569V14.3797ZM14.1804 9.81965V16.1241H7.87589V9.81965H14.1804ZM16.3232 7.19578L19.4448 4.07417L17.6724 4.03181C17.4851 4.0275 17.337 3.8721 17.3416 3.68515C17.3459 3.49792 17.5013 3.35008 17.6883 3.3544L20.2533 3.41591C20.4333 3.41995 20.5798 3.56482 20.5841 3.74666L20.6456 6.31171C20.6499 6.49894 20.5018 6.65406 20.3149 6.65838C20.1276 6.66269 19.9725 6.51459 19.9682 6.32763L19.9258 4.55518L16.8042 7.67679V7.53597C16.8039 7.35117 16.655 7.19605 16.464 7.19578H16.3232ZM16.8042 11.6598H22.868L21.6446 10.3765C21.5154 10.2408 21.5208 10.026 21.6565 9.8968C21.7922 9.76758 22.0069 9.77297 22.1361 9.90867L23.9064 11.7658C24.0305 11.8959 24.0319 12.102 23.9064 12.2336L22.1361 14.0911C22.0069 14.2268 21.7922 14.2321 21.6565 14.1029C21.5208 13.9737 21.5154 13.759 21.6446 13.6233L22.868 12.3399H16.8042V11.6598ZM15.9733 15.4923L15.4923 15.9733L19.4448 19.9258L17.6724 19.9682C17.4851 19.9725 17.337 20.1279 17.3416 20.3149C17.3459 20.5021 17.5013 20.6502 17.6883 20.6456L20.2533 20.5841C20.4352 20.5798 20.58 20.4333 20.5841 20.2533L20.6456 17.6883C20.6499 17.5011 20.5018 17.3459 20.3149 17.3416C20.1276 17.3373 19.9725 17.4854 19.9682 17.6724L19.9258 19.4448L15.9733 15.4923ZM12.3402 16.8042V22.868L13.6235 21.6446C13.7592 21.5154 13.974 21.5208 14.1032 21.6565C14.2324 21.7922 14.227 22.0069 14.0913 22.1361L12.2342 23.9064C12.1041 24.0305 11.898 24.0319 11.7664 23.9064L9.90894 22.1361C9.77324 22.0069 9.76785 21.7922 9.89707 21.6565C10.0263 21.5208 10.241 21.5154 10.3767 21.6446L11.6601 22.868V16.8042H12.3402ZM7.67679 16.8042L4.55545 19.9256L6.3279 19.9679C6.51513 19.9722 6.66296 20.1276 6.65865 20.3146C6.65433 20.5018 6.49894 20.6499 6.31198 20.6453L3.74693 20.5838C3.56698 20.5798 3.42049 20.4349 3.41618 20.2531L3.35467 17.688C3.35035 17.5008 3.49846 17.3457 3.68542 17.3414C3.87264 17.337 4.02776 17.4851 4.03208 17.6721L4.07444 19.4445L7.19605 16.3229V16.4638C7.19605 16.6515 7.3482 16.8039 7.53624 16.8039L7.67679 16.8042ZM7.19578 12.3402H1.13196L2.35541 13.6235C2.48463 13.7592 2.47923 13.974 2.34354 14.1032C2.20784 14.2324 1.99309 14.227 1.86387 14.0913L0.0935802 12.2342C-0.030518 12.1041 -0.0318669 11.898 0.0935802 11.7664L1.86387 9.90894C1.99309 9.77324 2.20784 9.76785 2.34354 9.89707C2.47923 10.0263 2.48463 10.241 2.35541 10.3767L1.13196 11.6601H7.19578V12.3402ZM8.0267 8.50771L4.07444 4.55518L4.03208 6.32763C4.02776 6.51486 3.87237 6.66296 3.68542 6.65838C3.49819 6.65406 3.35008 6.49867 3.35467 6.31171L3.41618 3.74666C3.42022 3.56671 3.56509 3.42022 3.74693 3.41591L6.31198 3.3544C6.49921 3.35008 6.65433 3.49819 6.65865 3.68515C6.66296 3.87237 6.51486 4.0275 6.3279 4.03181L4.55545 4.07417L8.50798 8.0267L8.0267 8.50771Z" fill="#4AE52E"></path></svg>