<svg xmlns="http://www.w3.org/2000/svg" fill="#ffffff" viewBox="0 0 307.217 256.493"><path fill="#ffffff" fill-rule="evenodd" d="M175.25 17.178c44.989 8.943 80.333 44.648 88.747 89.825h-1.285c-8.383-44.479-43.172-79.63-87.462-88.539zm88.405 133.153c-9 44.332-44.008 79.218-88.405 88.044v-1.286c43.698-8.79 78.15-43.124 87.114-86.758zm-131.732 88.215c-44.818-8.535-80.236-43.587-89.297-88.215h1.292c9.025 43.928 43.885 78.428 88.005 86.929zM42.285 107.003c8.47-45.473 44.225-81.348 89.638-89.996v1.286c-44.714 8.615-79.914 43.935-88.352 88.71z"></path><path fill="#ffffff" d="M153.141 75.252c14.504 0 27.635 5.879 37.14 15.385 9.506 9.504 15.384 22.636 15.384 37.14 0 14.504-5.879 27.635-15.383 37.14-9.506 9.505-22.637 15.383-37.14 15.383-14.505 0-27.636-5.878-37.14-15.383-9.506-9.505-15.385-22.636-15.385-37.14 0-14.504 5.88-27.636 15.384-37.14 9.505-9.506 22.636-15.385 37.14-15.385m36.725 15.799c-9.398-9.398-22.383-15.212-36.725-15.212-14.342 0-27.326 5.814-36.725 15.212-9.399 9.399-15.212 22.383-15.212 36.726 0 14.342 5.813 27.326 15.212 36.725 9.4 9.398 22.383 15.212 36.725 15.212 14.342 0 27.327-5.814 36.725-15.212 9.399-9.399 15.213-22.383 15.213-36.725 0-14.343-5.814-27.327-15.213-36.726M37.403 106.709h9.79v43.915H37.109v-43.915zm9.203.587h-8.91v42.741h8.91zM131.629 244.851v-9.79h43.914v10.083h-43.914zm.587-9.204v8.91h42.741v-8.91zM260.274 106.709h9.79v43.915h-10.083v-43.915zm9.203.587h-8.91v42.741h8.91zM131.629 21.979v-9.79h43.914v10.084h-43.914zm.587-9.203v8.91h42.741v-8.91zM153.586 0c.796 0 1.516.323 2.037.844.521.521.844 1.242.844 2.037 0 .795-.323 1.516-.844 2.037a2.871 2.871 0 0 1-2.037.843 2.873 2.873 0 0 1-2.037-.843 2.873 2.873 0 0 1-.843-2.037c0-.795.322-1.516.843-2.037A2.874 2.874 0 0 1 153.586 0m1.623 1.258a2.293 2.293 0 0 0-3.245 0 2.292 2.292 0 0 0 0 3.245c.415.415.989.672 1.622.672a2.29 2.29 0 0 0 2.294-2.294c0-.633-.257-1.207-.671-1.623M281.833 128.246c0 .796-.323 1.516-.844 2.037a2.872 2.872 0 0 1-2.037.844 2.873 2.873 0 0 1-2.037-.844 2.872 2.872 0 0 1-.844-2.037c0-.795.323-1.516.844-2.037a2.873 2.873 0 0 1 2.037-.843 2.87 2.87 0 0 1 2.037.843c.521.521.844 1.242.844 2.037m-1.259 1.623a2.29 2.29 0 0 0 .672-1.623c0-.633-.257-1.207-.672-1.622a2.288 2.288 0 0 0-1.622-.672c-.634 0-1.208.257-1.622.672a2.288 2.288 0 0 0-.672 1.622 2.29 2.29 0 0 0 2.294 2.294 2.29 2.29 0 0 0 1.622-.671M153.586 250.731c.796 0 1.516.323 2.037.844.521.522.844 1.242.844 2.037 0 .796-.323 1.516-.844 2.037a2.872 2.872 0 0 1-2.037.844 2.874 2.874 0 0 1-2.037-.844 2.871 2.871 0 0 1-.843-2.037c0-.795.322-1.515.843-2.037a2.874 2.874 0 0 1 2.037-.844m1.623 1.259a2.29 2.29 0 0 0-1.623-.672c-.633 0-1.207.257-1.622.672a2.288 2.288 0 0 0-.672 1.622c0 .634.257 1.208.672 1.622.415.415.989.672 1.622.672a2.29 2.29 0 0 0 2.294-2.294c0-.633-.257-1.207-.671-1.622M31.101 128.246a2.876 2.876 0 0 1-2.881 2.881 2.877 2.877 0 0 1-2.037-.844 2.872 2.872 0 0 1-.844-2.037 2.876 2.876 0 0 1 2.881-2.88 2.875 2.875 0 0 1 2.881 2.88m-1.259 1.623c.416-.416.673-.989.673-1.623 0-.633-.257-1.207-.673-1.622a2.284 2.284 0 0 0-1.622-.672c-.633 0-1.207.257-1.622.672a2.288 2.288 0 0 0-.672 1.622 2.29 2.29 0 0 0 2.294 2.294c.634 0 1.208-.257 1.622-.671"></path><path fill="#ffffff" d="M153.586 147.748c.796 0 1.516.323 2.037.844.521.521.844 1.242.844 2.037 0 .795-.323 1.516-.844 2.037a2.872 2.872 0 0 1-2.037.844 2.874 2.874 0 0 1-2.037-.844 2.873 2.873 0 0 1-.843-2.037c0-.795.322-1.516.843-2.037a2.874 2.874 0 0 1 2.037-.844m1.623 1.259a2.29 2.29 0 0 0-1.623-.672c-.633 0-1.207.257-1.622.672a2.288 2.288 0 0 0-.672 1.622c0 .633.257 1.207.672 1.622.415.415.989.672 1.622.672a2.29 2.29 0 0 0 2.294-2.294c0-.633-.257-1.207-.671-1.622M134.214 128.376c0 .796-.323 1.516-.844 2.037a2.872 2.872 0 0 1-2.037.844 2.87 2.87 0 0 1-2.036-.844 2.869 2.869 0 0 1-.845-2.037c0-.795.323-1.516.845-2.037a2.87 2.87 0 0 1 2.036-.844c.796 0 1.516.323 2.037.844.521.521.844 1.242.844 2.037m-1.259 1.622c.415-.414.672-.988.672-1.622 0-.633-.257-1.207-.672-1.622a2.284 2.284 0 0 0-1.622-.672 2.291 2.291 0 0 0-2.293 2.294c0 .634.257 1.208.671 1.622.415.415.99.672 1.622.672.634 0 1.208-.257 1.622-.672M139.888 114.678c-.562.562-1.3.844-2.037.844a2.874 2.874 0 0 1-2.717-1.926 2.889 2.889 0 0 1-.158-1.127l-12.71-12.711h-19.995c-.523 0-.999-.214-1.343-.558a1.896 1.896 0 0 1 0-2.686c.344-.344.82-.558 1.343-.558h20.875c.35 0 .68.097.964.265.279.166.514.402.678.682l12.863 12.865c.384-.027.773.024 1.142.152a2.873 2.873 0 0 1 1.939 2.721c0 .737-.282 1.475-.844 2.037m-2.037.257c.587 0 1.175-.224 1.622-.672a2.285 2.285 0 0 0 .672-1.622c0-.587-.224-1.174-.672-1.622a2.272 2.272 0 0 0-1.897-.656l-.142.017-13.116-13.116-.021-.039a1.34 1.34 0 0 0-.486-.5 1.308 1.308 0 0 0-.665-.182h-20.875c-.362 0-.69.148-.928.386a1.311 1.311 0 0 0 0 1.856c.238.239.566.387.928.387h20.237l13.078 13.077-.016.141a2.28 2.28 0 0 0 .66 1.873 2.286 2.286 0 0 0 1.621.672M153.586 103.242c.796 0 1.516.323 2.037.844.521.521.844 1.242.844 2.037a2.876 2.876 0 0 1-2.881 2.881 2.877 2.877 0 0 1-2.88-2.881c0-.795.322-1.516.843-2.037a2.874 2.874 0 0 1 2.037-.844m1.623 1.259a2.29 2.29 0 0 0-1.623-.672c-.633 0-1.207.257-1.622.672a2.288 2.288 0 0 0-.672 1.622c0 .634.257 1.208.672 1.622.415.416.989.673 1.622.673.634 0 1.207-.257 1.623-.673.414-.414.671-.988.671-1.622 0-.633-.257-1.207-.671-1.622M172.19 112.384a2.877 2.877 0 0 1-.832 2.293c-.562.564-1.3.845-2.037.845a2.871 2.871 0 0 1-2.037-.844 2.874 2.874 0 0 1-.844-2.037 2.875 2.875 0 0 1 1.895-2.707 2.915 2.915 0 0 1 1.099-.171l12.859-12.86c.164-.28.399-.516.678-.682a1.89 1.89 0 0 1 .964-.265h20.875c.523 0 .999.214 1.343.558a1.897 1.897 0 0 1 0 2.686c-.344.344-.82.558-1.343.558h-19.995zm-.692.986a2.31 2.31 0 0 0 .095-1.053l-.021-.145c4.339-4.327 8.675-8.66 13-13h20.238c.361 0 .69-.148.928-.387a1.309 1.309 0 0 0 0-1.856 1.31 1.31 0 0 0-.928-.386h-20.875c-.243 0-.471.067-.665.182a1.334 1.334 0 0 0-.486.5l-.022.039c-4.341 4.387-8.732 8.745-13.104 13.104l-.136-.012a2.28 2.28 0 0 0-1.823.663 2.287 2.287 0 0 0-.672 1.622c0 .587.224 1.175.672 1.622a2.287 2.287 0 0 0 1.622.672c.587 0 1.175-.224 1.623-.672.26-.26.446-.567.554-.893M178.72 128.376c0 .796-.323 1.516-.844 2.037a2.872 2.872 0 0 1-2.037.844 2.874 2.874 0 0 1-2.037-.844 2.872 2.872 0 0 1-.844-2.037c0-.795.323-1.516.844-2.037a2.874 2.874 0 0 1 2.037-.844c.796 0 1.516.323 2.037.844.521.521.844 1.242.844 2.037m-1.259 1.622c.415-.414.672-.988.672-1.622 0-.633-.257-1.207-.672-1.622a2.288 2.288 0 0 0-1.622-.672c-.633 0-1.207.257-1.622.672a2.288 2.288 0 0 0-.672 1.622c0 .634.257 1.208.672 1.622.415.415.99.672 1.622.672.633 0 1.207-.257 1.622-.672M169.476 146.987a2.873 2.873 0 0 1-2.192-.839 2.874 2.874 0 0 1-.844-2.037c0-.737.282-1.474.844-2.036a2.872 2.872 0 0 1 2.037-.845c.737 0 1.473.282 2.036.844a2.859 2.859 0 0 1 .835 2.253l12.623 12.623h19.995c.523 0 .999.213 1.343.558a1.897 1.897 0 0 1 0 2.685c-.344.345-.82.558-1.343.558h-20.875c-.35 0-.68-.096-.964-.264a1.929 1.929 0 0 1-.678-.683zm-.925-.713c.324.114.67.154 1.007.12l.14-.015 13.064 13.065.022.039a1.325 1.325 0 0 0 1.151.682h20.875c.361 0 .69-.148.928-.386a1.311 1.311 0 0 0-.928-2.242h-20.238c-4.323-4.338-8.66-8.663-12.992-12.993l.018-.143a2.292 2.292 0 0 0-2.277-2.584c-.587 0-1.174.224-1.62.672a2.284 2.284 0 0 0-.674 1.622c0 .587.224 1.175.672 1.622.25.25.542.431.852.541M5.761 69.633c0 .795-.322 1.516-.844 2.036a2.868 2.868 0 0 1-2.036.845 2.87 2.87 0 0 1-2.038-.845 2.88 2.88 0 1 1 4.074-4.074c.522.522.844 1.242.844 2.038m-1.258 1.622c.414-.415.671-.989.671-1.622 0-.634-.257-1.208-.671-1.622a2.285 2.285 0 0 0-1.622-.673c-.634 0-1.208.257-1.623.673a2.284 2.284 0 0 0-.672 1.622 2.292 2.292 0 0 0 2.295 2.293c.633 0 1.207-.257 1.622-.671M5.761 186.398c0 .795-.322 1.515-.844 2.036a2.867 2.867 0 0 1-2.036.844 2.87 2.87 0 0 1-2.038-.844A2.874 2.874 0 0 1 0 186.398a2.877 2.877 0 0 1 2.881-2.881c.795 0 1.515.323 2.036.843a2.87 2.87 0 0 1 .844 2.038m-1.258 1.622c.414-.415.671-.989.671-1.622a2.292 2.292 0 0 0-2.293-2.295c-.634 0-1.208.257-1.623.672a2.288 2.288 0 0 0-.672 1.623 2.292 2.292 0 0 0 2.295 2.293c.633 0 1.207-.257 1.622-.671M307.217 70.152c0 .795-.323 1.516-.844 2.037a2.87 2.87 0 0 1-2.037.844 2.877 2.877 0 0 1-2.88-2.881 2.877 2.877 0 0 1 2.88-2.881 2.87 2.87 0 0 1 2.037.844c.521.521.844 1.242.844 2.037m-1.258 1.622c.414-.415.67-.989.67-1.622a2.291 2.291 0 0 0-2.293-2.294c-.633 0-1.207.257-1.622.672a2.287 2.287 0 0 0-.671 1.622 2.288 2.288 0 0 0 2.293 2.294c.634 0 1.208-.257 1.623-.672M307.09 186.246a2.876 2.876 0 0 1-2.881 2.881 2.877 2.877 0 0 1-2.88-2.881c0-.795.322-1.516.843-2.036a2.87 2.87 0 0 1 2.037-.845c.796 0 1.516.323 2.037.845a2.87 2.87 0 0 1 .844 2.036m-1.259 1.622c.415-.414.672-.988.672-1.622a2.292 2.292 0 1 0-4.588 0c0 .634.257 1.208.672 1.622.414.416.988.673 1.622.673.633 0 1.207-.257 1.622-.673M63.854 97.733c0-.261.107-.5.279-.672a.95.95 0 0 1 .673-.281H76.03a.956.956 0 0 1 .953.953.952.952 0 0 1-.953.953H64.806a.952.952 0 0 1-.952-.953m.586 0a.367.367 0 0 0 .366.367H76.03a.366.366 0 0 0 0-.734H64.806a.367.367 0 0 0-.366.367M63.854 158.55c0-.262.107-.5.279-.672a.95.95 0 0 1 .673-.281H76.03a.95.95 0 0 1 .673 1.626.952.952 0 0 1-.673.28H64.806a.953.953 0 0 1-.952-.953m.586 0a.369.369 0 0 0 .366.367H76.03a.366.366 0 0 0 0-.734H64.806a.367.367 0 0 0-.366.367M228.549 97.73c0-.262.108-.501.28-.673a.95.95 0 0 1 .673-.281h11.224a.951.951 0 0 1 .953.953.952.952 0 0 1-.953.954h-11.224a.953.953 0 0 1-.672-.28.949.949 0 0 1-.281-.673m.587-.001a.365.365 0 0 0 .366.366h11.224a.365.365 0 0 0 .259-.625.37.37 0 0 0-.259-.107h-11.224a.366.366 0 0 0-.366.366M228.549 158.965a.954.954 0 0 1 .953-.954h11.224a.952.952 0 0 1 .953.953.95.95 0 0 1-.28.674.948.948 0 0 1-.673.28h-11.224a.949.949 0 0 1-.672-.28.947.947 0 0 1-.281-.673m.587-.001c0 .101.041.193.108.259a.362.362 0 0 0 .258.108h11.224a.366.366 0 0 0 0-.732h-11.224c-.1 0-.192.04-.259.106a.368.368 0 0 0-.107.259M100.957 158.851c0 .361.148.69.386.928.238.238.566.386.928.386h20.875c.242 0 .47-.067.665-.182.203-.12.372-.294.486-.5l.021-.039c4.38-4.333 8.728-8.715 13.078-13.078l.145.019a2.286 2.286 0 0 0 1.932-.65 2.293 2.293 0 0 0 .001-3.246 2.292 2.292 0 0 0-1.623-.671 2.29 2.29 0 0 0-2.159 1.514c-.115.32-.157.661-.126.996l.013.137c-4.35 4.364-8.714 8.715-13.07 13.072H102.27c-.362 0-.69.148-.928.386a1.31 1.31 0 0 0-.386.928m-.587 0c0-.523.214-.999.558-1.343.344-.345.82-.558 1.343-.558h19.995l12.708-12.709c-.017-.374.04-.75.168-1.106.14-.388.363-.75.672-1.059a2.867 2.867 0 0 1 2.037-.846 2.87 2.87 0 0 1 2.037.845c.563.563.844 1.3.844 2.036a2.874 2.874 0 0 1-1.96 2.729 2.868 2.868 0 0 1-1.16.141l-12.824 12.823a1.929 1.929 0 0 1-.678.683 1.889 1.889 0 0 1-.964.264h-20.875c-.523 0-.999-.213-1.343-.558a1.894 1.894 0 0 1-.558-1.342"></path><path fill="#ffffff" d="M211.318 158.54a6.953 6.953 0 0 1-6.947 6.946h-20.874a6.826 6.826 0 0 1-1.823-.248 6.956 6.956 0 0 1-2.761-1.497 7.016 7.016 0 0 1-.886-.94l-14.161-14.161a6.946 6.946 0 0 1-2.033-4.912 6.915 6.915 0 0 1 1.947-4.803v-.19l.192-.002a6.915 6.915 0 0 1 4.805-1.95 6.901 6.901 0 0 1 4.804 1.947h.023l12.862 12.863h17.905a6.928 6.928 0 0 1 4.911 2.036 6.964 6.964 0 0 1 1.508 2.256c.34.819.528 1.716.528 2.655m-1.069 2.43c.311-.748.482-1.57.482-2.43 0-.861-.17-1.682-.482-2.43a6.375 6.375 0 0 0-5.878-3.93h-18.148l-12.862-12.863h-.019l-.086-.086a6.315 6.315 0 0 0-8.957 0l-.019.019a6.36 6.36 0 0 0-1.377 2.057 6.302 6.302 0 0 0-.484 2.421c0 .83.162 1.661.484 2.438a6.317 6.317 0 0 0 1.377 2.058c3.782 3.782 11.23 10.384 14.198 14.201a6.404 6.404 0 0 0 1.791 1.583 6.403 6.403 0 0 0 1.561.666 6.245 6.245 0 0 0 1.667.226h20.874a6.334 6.334 0 0 0 4.496-1.864 6.385 6.385 0 0 0 1.382-2.066M210.731 98.334c0-.861-.171-1.682-.482-2.43a6.385 6.385 0 0 0-3.448-3.448 6.334 6.334 0 0 0-2.43-.482h-20.874a6.286 6.286 0 0 0-3.228.892 6.338 6.338 0 0 0-1.791 1.582c-3.148 3.973-10.295 10.299-14.198 14.201a6.328 6.328 0 0 0-1.861 4.497c0 .823.162 1.647.484 2.421a6.36 6.36 0 0 0 1.377 2.057l.019.019a6.37 6.37 0 0 0 2.057 1.378 6.308 6.308 0 0 0 4.844 0 6.365 6.365 0 0 0 2.056-1.378l.086-.086h.019l12.862-12.863h18.148c.861 0 1.682-.171 2.43-.482a6.375 6.375 0 0 0 3.93-5.878m.059-2.655c.34.819.528 1.717.528 2.655 0 .939-.188 1.836-.528 2.655a6.964 6.964 0 0 1-3.764 3.764 6.91 6.91 0 0 1-2.655.528h-17.905l-12.862 12.863h-.023a6.914 6.914 0 0 1-4.804 1.947 6.9 6.9 0 0 1-4.805-1.95l-.192-.003v-.189a6.915 6.915 0 0 1-1.418-7.464 6.916 6.916 0 0 1 1.504-2.251l14.161-14.161a7.02 7.02 0 0 1 3.647-2.438 6.865 6.865 0 0 1 1.823-.247h20.874a6.938 6.938 0 0 1 4.911 2.036 6.96 6.96 0 0 1 1.508 2.255M95.797 158.54a6.337 6.337 0 0 0 1.864 4.496 6.329 6.329 0 0 0 4.495 1.864h20.875c.576 0 1.136-.079 1.667-.226a6.403 6.403 0 0 0 3.352-2.249c2.738-3.605 10.576-10.579 14.197-14.201a6.34 6.34 0 0 0 1.38-2.058 6.392 6.392 0 0 0 .481-2.438 6.318 6.318 0 0 0-1.86-4.478l-.02-.019a6.31 6.31 0 0 0-6.899-1.378c-.747.31-1.448.77-2.057 1.378l-.086.086h-.019l-12.863 12.863h-18.148a6.31 6.31 0 0 0-2.429.482 6.378 6.378 0 0 0-3.449 3.448 6.333 6.333 0 0 0-.48 2.43m-.06 2.654a6.923 6.923 0 0 1-.527-2.654 6.928 6.928 0 0 1 2.036-4.911 6.927 6.927 0 0 1 4.91-2.036h17.906l12.862-12.863h.023a6.921 6.921 0 0 1 4.803-1.947 6.9 6.9 0 0 1 4.806 1.95l.192.002v.19a6.899 6.899 0 0 1 1.947 4.803 6.94 6.94 0 0 1-2.033 4.912l-14.161 14.161a7.016 7.016 0 0 1-3.647 2.437 6.826 6.826 0 0 1-1.823.248h-20.875a6.927 6.927 0 0 1-4.91-2.036 6.972 6.972 0 0 1-1.509-2.256M95.21 98.334a6.932 6.932 0 0 1 2.036-4.91 6.94 6.94 0 0 1 4.91-2.036h20.875a6.865 6.865 0 0 1 3.526.974 6.976 6.976 0 0 1 1.944 1.711l14.16 14.161a6.935 6.935 0 0 1 1.506 7.558 6.935 6.935 0 0 1-1.42 2.157v.189l-.191.003a6.9 6.9 0 0 1-7.453 1.421 6.922 6.922 0 0 1-2.156-1.418h-.023l-12.862-12.863h-17.906a6.909 6.909 0 0 1-2.654-.528 6.969 6.969 0 0 1-3.765-3.764 6.928 6.928 0 0 1-.527-2.655m1.068-2.43a6.333 6.333 0 0 0-.481 2.43 6.333 6.333 0 0 0 1.864 4.496 6.385 6.385 0 0 0 2.066 1.382 6.31 6.31 0 0 0 2.429.482h18.148l12.863 12.863h.019l.086.086a6.357 6.357 0 0 0 2.057 1.378 6.301 6.301 0 0 0 4.843 0 6.356 6.356 0 0 0 2.056-1.378l.038-.038a6.322 6.322 0 0 0 1.842-4.459 6.4 6.4 0 0 0-.482-2.439 6.35 6.35 0 0 0-1.379-2.058c-3.746-3.746-11.28-10.429-14.197-14.201a6.39 6.39 0 0 0-3.352-2.249 6.286 6.286 0 0 0-1.667-.225h-20.875a6.329 6.329 0 0 0-4.495 1.864 6.389 6.389 0 0 0-1.383 2.066"></path><path fill="#ffffff" d="M153.141 105.58c6.13 0 11.68 2.484 15.695 6.501a22.127 22.127 0 0 1 6.502 15.695c0 6.13-2.485 11.679-6.5 15.696a22.127 22.127 0 0 1-15.697 6.501 22.126 22.126 0 0 1-15.695-6.501 22.128 22.128 0 0 1-6.502-15.696 22.127 22.127 0 0 1 6.502-15.695 22.126 22.126 0 0 1 15.695-6.501m15.281 6.916a21.542 21.542 0 0 0-15.28-6.33 21.54 21.54 0 0 0-15.281 6.33 21.54 21.54 0 0 0-6.33 15.28c0 5.968 2.419 11.37 6.33 15.281a21.54 21.54 0 0 0 15.28 6.33c5.967 0 11.37-2.419 15.281-6.33a21.548 21.548 0 0 0 6.33-15.281c0-5.967-2.42-11.37-6.33-15.28M5.468 69.491h37.913l15.655 27.926h42.057v.587h-42.4L43.038 70.078H5.468zM5.468 186.177h37.57l15.655-27.926h42.4v.586H59.036l-15.655 27.927H5.468zM302.031 70.078h-37.57l-15.655 27.926h-42.4v-.587h42.058l15.654-27.926h37.913zM302.031 187.156h-37.913l-15.654-27.927h-42.058v-.587h42.4l15.655 27.927h37.57z"></path><path fill="#ffffff" d="M75.599 93.293h26.197l17.014 17.014-1.098 1.098-16.559-16.559H75.599zM117.784 205.778V179.42l17.128-17.128 1.647 1.647-16.446 16.446v25.393zM75.599 161.652h25.554l16.559-16.559 1.098 1.097-17.014 17.015H75.599zM186.144 205.778v-25.393l-16.446-16.446 1.646-1.647 17.128 17.129v26.357zM230.657 94.846h-25.554l-16.559 16.559-1.098-1.098 17.015-17.014h26.196zM120.113 50.719v25.394l16.446 16.445-1.647 1.647-17.128-17.129V50.719zM230.657 163.205h-26.196l-17.015-17.015 1.098-1.097 16.559 16.559h25.554zM188.472 50.719v26.357l-17.128 17.129-1.646-1.647 16.446-16.445V50.719zM30.808 127.953h108.185v.587H30.808zM153.64 5.708v108.184h-.587V5.708zM167.701 127.953h108.185v.587H167.701zM153.64 142.601v108.184h-.587V142.601z"></path></svg>